# File created by Blade
# Date/Time:  Wed Jan 21 19:19:27 2015
#---------------------------------------------------------
:version 1.10
:name HOM
:units
  mass 1.0
  length 1.000000
  angle deg
:documentation
     Acclaim Skeleton File
:root
   axis xyz
   order TX TY TZ RX RY RZ
   position 0.000000 0.000000 0.000000
   orientation 0 0 0
:bonedata
   begin
      id 1
      name RightUpLeg_dum
      direction -1.000000 0.000000 0.000000
      length 3.693983
      axis 0.0 0.0 0.0 xyz
   end
   begin
      id 2
      name LeftUpLeg_dum
      direction 1.000000 0.000000 0.000000
      length 3.693983
      axis 0.0 0.0 0.0 xyz
   end
   begin
      id 3
      name Spine_dum
      direction 0.000000 1.000000 0.000000
      length 2.392956
      axis 0.0 0.0 0.0 xyz
   end
   begin
      id 4
      name RightUpLeg
      direction 0.000000 -1.000000 0.000000
      length 15.795667
      axis 0.0 0.0 0.0 xyz
      dof rx ry rz
   end
   begin
      id 5
      name RightLeg
      direction 0.000000 -1.000000 0.000000
      length 14.766989
      axis 0.0 0.0 0.0 xyz
      dof rx ry rz
   end
   begin
      id 6
      name RightFoot
      direction 0.000000 -0.258819 0.965926
      length 4.962790
      axis 15.0 0.0 0.0 xyz
      dof rx ry rz
   end
   begin
      id 7
      name RightToeBase
      direction 0.000000 0.000000 1.000000
      length 2.952750
      axis 0.0 0.0 0.0 xyz
      dof rx ry rz
   end
   begin
      id 8
      name LeftUpLeg
      direction 0.000000 -1.000000 0.000000
      length 15.795667
      axis 0.0 0.0 0.0 xyz
      dof rx ry rz
   end
   begin
      id 9
      name LeftLeg
      direction 0.000000 -1.000000 0.000000
      length 14.766989
      axis 0.0 0.0 0.0 xyz
      dof rx ry rz
   end
   begin
      id 10
      name LeftFoot
      direction 0.000000 -0.258819 0.965926
      length 4.962790
      axis 15.0 0.0 0.0 xyz
      dof rx ry rz
   end
   begin
      id 11
      name LeftToeBase
      direction 0.000000 0.000000 1.000000
      length 2.952750
      axis 0.0 0.0 0.0 xyz
      dof rx ry rz
   end
   begin
      id 12
      name Spine
      direction 0.000000 1.000000 0.000000
      length 0.000000
      axis 0.0 0.0 0.0 xyz
      dof rx ry rz
   end
   begin
      id 13
      name Spine_dum1
      direction 0.000000 1.000000 0.000000
      length 13.207411
      axis 0.0 0.0 0.0 xyz
   end
   begin
      id 14
      name Spine_dum2
      direction 0.000000 1.000000 0.000000
      length 13.207411
      axis 0.0 0.0 0.0 xyz
   end
   begin
      id 15
      name Spine_dum3
      direction 0.000000 1.000000 0.000000
      length 19.250100
      axis 0.0 0.0 0.0 xyz
   end
   begin
      id 16
      name RightShoulder
      direction -1.000000 0.000000 0.000000
      length 8.140465
      axis 0.0 0.0 90.0 xyz
      dof rx ry rz
   end
   begin
      id 17
      name RightArm
      direction -1.000000 0.000000 0.000000
      length 10.649840
      axis 0.0 0.0 90.0 xyz
      dof rx ry rz
   end
   begin
      id 18
      name RightForeArm
      direction -1.000000 0.000000 0.000000
      length 8.304624
      axis 0.0 0.0 90.0 xyz
      dof ry rz rx
   end
   begin
      id 19
      name RightHand
      direction -1.000000 0.000000 0.000000
      length 0.000000
      axis 0.0 0.0 90.0 xyz
      dof rx ry rz
   end
   begin
      id 20
      name RightHand_dum1
      direction -1.000000 0.000000 0.000000
      length 3.937000
      axis 0.0 0.0 90.0 xyz
   end
   begin
      id 21
      name RightHand_dum2
      direction 0.000000 0.000000 0.000000
      length 0.000000
      axis 0.0 0.0 90.0 xyz
   end
   begin
      id 22
      name RightHandThumb1
      direction 0.000000 0.000000 1.000000
      length 3.937000
      axis 0.0 0.0 90.0 xyz
      dof rx rz ry
   end
   begin
      id 23
      name LeftShoulder
      direction 1.000000 0.000000 0.000000
      length 8.140465
      axis 0.0 0.0 -90.0 xyz
      dof rx ry rz
   end
   begin
      id 24
      name LeftArm
      direction 1.000000 0.000000 0.000000
      length 10.649840
      axis 0.0 0.0 -90.0 xyz
      dof rx ry rz
   end
   begin
      id 25
      name LeftForeArm
      direction 1.000000 0.000000 0.000000
      length 8.304624
      axis 0.0 0.0 -90.0 xyz
      dof ry rz rx
   end
   begin
      id 26
      name LeftHand
      direction 1.000000 0.000000 0.000000
      length 0.000000
      axis 0.0 0.0 -90.0 xyz
      dof rx ry rz
   end
   begin
      id 27
      name LeftHand_dum1
      direction 1.000000 0.000000 0.000000
      length 3.937000
      axis 0.0 0.0 -90.0 xyz
   end
   begin
      id 28
      name LeftHand_dum2
      direction 0.000000 0.000000 0.000000
      length 0.000000
      axis 0.0 0.0 -90.0 xyz
   end
   begin
      id 29
      name LeftHandThumb1
      direction 0.000000 0.000000 1.000000
      length 3.937000
      axis 0.0 0.0 -90.0 xyz
      dof rx rz ry
   end
   begin
      id 30
      name Head
      direction 0.000000 1.000000 0.000000
      length 4.527550
      axis 0.0 0.0 0.0 xyz
      dof rx ry rz
   end
:hierarchy
   begin
      root RightUpLeg_dum LeftUpLeg_dum Spine_dum
      RightUpLeg_dum RightUpLeg
      LeftUpLeg_dum LeftUpLeg
      Spine_dum Spine
      RightUpLeg RightLeg
      RightLeg RightFoot
      RightFoot RightToeBase
      LeftUpLeg LeftLeg
      LeftLeg LeftFoot
      LeftFoot LeftToeBase
      Spine Spine_dum1 Spine_dum2 Spine_dum3
      Spine_dum1 RightShoulder
      Spine_dum2 LeftShoulder
      Spine_dum3 Head
      RightShoulder RightArm
      RightArm RightForeArm
      RightForeArm RightHand
      RightHand RightHand_dum1 RightHand_dum2
      RightHand_dum2 RightHandThumb1
      LeftShoulder LeftArm
      LeftArm LeftForeArm
      LeftForeArm LeftHand
      LeftHand LeftHand_dum1 LeftHand_dum2
      LeftHand_dum2 LeftHandThumb1
   end

# File created by Blade
# Date/Time:  Wed Jan 21 19:19:18 2015
# Frame Rate: 120.000 fps
#------------------------------------------------------
:FULLY-SPECIFIED
:DEGREES
326
root -0.618543 15.957228 -2.597909 48.214114 -24.978334 22.518795
RightUpLeg -174.118770 -48.430079 35.023685
RightLeg 99.099206 -0.000000 -0.000000
RightFoot -10.046627 21.701566 15.434690
RightToeBase 15.635885 -0.000000 -0.000000
LeftUpLeg -32.462699 33.985990 16.206126
LeftLeg 11.151111 -0.000000 -0.000000
LeftFoot -25.243599 -2.948645 -21.813858
LeftToeBase 3.973541 -0.000000 -0.000000
Spine -33.991537 17.223300 23.262858
RightShoulder -11.295070 21.879006 -15.658693
RightArm -0.522829 -15.719633 56.038040
RightForeArm 4.238411 -0.000000 5.453045
RightHand 42.910908 -0.000000 -72.798691
RightHandThumb1 -24.326973 -0.000000 -32.862282
LeftShoulder -21.048958 -21.202532 70.913570
LeftArm 64.889865 -48.422868 -17.414874
LeftForeArm 10.578181 -0.000000 16.469240
LeftHand -18.541859 -0.000000 21.504749
LeftHandThumb1 -26.253704 0.000000 33.147579
Head -33.183153 -5.805156 50.338922
327
root -0.638761 15.927580 -2.593599 48.050457 -24.623007 22.515261
RightUpLeg -173.920212 -48.928705 34.871021
RightLeg 99.273067 -0.000000 -0.000000
RightFoot -9.993230 21.441625 16.161457
RightToeBase 15.833841 -0.000000 -0.000000
LeftUpLeg -32.339048 33.665037 16.647273
LeftLeg 11.226194 -0.000000 -0.000000
LeftFoot -25.397737 -2.774423 -21.508015
LeftToeBase 4.057146 -0.000000 -0.000000
Spine -34.060849 17.121401 23.402789
RightShoulder -11.515935 21.724711 -15.645437
RightArm -0.700035 -15.588955 55.993674
RightForeArm 3.979969 0.000000 6.020206
RightHand 42.669575 0.000000 -73.098731
RightHandThumb1 -24.326973 -0.000000 -32.862282
LeftShoulder -21.034086 -21.287699 70.953381
LeftArm 65.211618 -48.268187 -17.243900
LeftForeArm 10.523093 0.000000 16.359419
LeftHand -18.398534 -0.000000 21.147191
LeftHandThumb1 -26.253704 0.000000 33.147579
Head -33.389397 -6.005123 50.628992
328
root -0.660906 15.892959 -2.587672 47.884578 -24.299568 22.508506
RightUpLeg -173.655195 -49.497145 34.657547
RightLeg 99.464106 -0.000000 -0.000000
RightFoot -9.763235 21.122698 17.399264
RightToeBase 16.230599 -0.000000 -0.000000
LeftUpLeg -32.187941 33.378788 17.067110
LeftLeg 11.276340 -0.000000 -0.000000
LeftFoot -25.582306 -2.561292 -21.124481
LeftToeBase 4.184738 -0.000000 -0.000000
Spine -34.123452 17.025654 23.517259
RightShoulder -11.856030 21.502423 -15.653799
RightArm -0.691163 -15.370265 55.964769
RightForeArm 3.619832 -0.000000 6.532277
RightHand 42.437146 -0.000000 -73.263390
RightHandThumb1 -24.326973 -0.000000 -32.862282
LeftShoulder -21.035777 -21.418016 71.028560
LeftArm 65.517154 -48.048474 -17.092150
LeftForeArm 10.585752 -0.000000 16.234748
LeftHand -18.254718 -0.000000 20.866774
LeftHandThumb1 -26.253704 0.000000 33.147579
Head -33.607466 -6.217671 50.915143
329
root -0.685897 15.854844 -2.581162 47.740424 -23.981684 22.481569
RightUpLeg -173.381328 -50.054495 34.417920
RightLeg 99.728603 -0.000000 -0.000000
RightFoot -9.892537 21.124212 18.161968
RightToeBase 16.546862 -0.000000 -0.000000
LeftUpLeg -32.041097 33.107244 17.494072
LeftLeg 11.321962 -0.000000 -0.000000
LeftFoot -25.744821 -2.309177 -20.750456
LeftToeBase 4.279391 -0.000000 -0.000000
Spine -34.195801 16.895908 23.667551
RightShoulder -12.141648 21.382202 -15.662753
RightArm -0.772196 -15.045032 55.973828
RightForeArm 3.058233 0.000000 7.041068
RightHand 42.260095 -0.000000 -73.386064
RightHandThumb1 -24.326973 -0.000000 -32.862282
LeftShoulder -21.027554 -21.523816 71.100611
LeftArm 65.774809 -47.811647 -16.883633
LeftForeArm 10.658319 -0.000000 16.121746
LeftHand -18.201935 0.000000 20.523520
LeftHandThumb1 -26.253704 0.000000 33.147579
Head -33.747557 -6.417268 51.175036
330
root -0.715009 15.810362 -2.573657 47.619453 -23.639361 22.428091
RightUpLeg -173.147741 -50.581533 34.226079
RightLeg 100.027971 -0.000000 -0.000000
RightFoot -10.071069 21.156738 18.712867
RightToeBase 16.938818 -0.000000 -0.000000
LeftUpLeg -31.892444 32.855511 17.962961
LeftLeg 11.356836 -0.000000 -0.000000
LeftFoot -25.907446 -2.124868 -20.520588
LeftToeBase 4.551427 -0.000000 -0.000000
Spine -34.285620 16.720393 23.856356
RightShoulder -12.421000 21.336873 -15.629340
RightArm -0.900535 -14.982822 55.956968
RightForeArm 2.620767 -0.000000 7.620440
RightHand 42.038363 -0.000000 -73.546143
RightHandThumb1 -24.326973 -0.000000 -32.862282
LeftShoulder -21.048969 -21.583709 71.222238
LeftArm 66.006636 -47.540795 -16.679191
LeftForeArm 10.646150 -0.000000 15.993953
LeftHand -18.092592 -0.000000 20.414639
LeftHandThumb1 -26.253704 0.000000 33.147579
Head -33.851447 -6.565530 51.444503
331
root -0.746771 15.762135 -2.564929 47.526816 -23.287017 22.331051
RightUpLeg -172.868214 -51.098341 34.001448
RightLeg 100.335626 -0.000000 -0.000000
RightFoot -10.168164 21.130159 19.392392
RightToeBase 17.430179 -0.000000 -0.000000
LeftUpLeg -31.756877 32.630634 18.468430
LeftLeg 11.417999 -0.000000 -0.000000
LeftFoot -26.073356 -1.896907 -20.196139
LeftToeBase 4.681623 -0.000000 -0.000000
Spine -34.379143 16.559550 24.089769
RightShoulder -12.707747 21.270487 -15.606387
RightArm -1.117229 -14.524499 55.983294
RightForeArm 1.853377 -0.000000 8.479844
RightHand 41.667386 -0.000000 -73.591179
RightHandThumb1 -24.326973 -0.000000 -32.862282
LeftShoulder -21.047410 -21.616106 71.281886
LeftArm 66.316176 -47.337445 -16.557526
LeftForeArm 10.768940 -0.000000 15.906720
LeftHand -18.073510 -0.000000 20.146355
LeftHandThumb1 -26.253704 0.000000 33.147579
Head -33.935004 -6.739669 51.688758
332
root -0.779934 15.710382 -2.555383 47.435742 -22.928049 22.236365
RightUpLeg -172.592772 -51.609880 33.771643
RightLeg 100.653377 -0.000000 -0.000000
RightFoot -10.280905 20.996771 19.909820
RightToeBase 18.076784 -0.000000 -0.000000
LeftUpLeg -31.609329 32.366001 18.999227
LeftLeg 11.470504 -0.000000 -0.000000
LeftFoot -26.215209 -1.743337 -20.161238
LeftToeBase 4.678577 -0.000000 -0.000000
Spine -34.485611 16.347396 24.345033
RightShoulder -12.886321 21.257191 -15.554208
RightArm -1.595862 -14.051731 56.023990
RightForeArm 1.051410 0.000000 9.690593
RightHand 41.294141 -0.000000 -73.358571
RightHandThumb1 -24.326973 -0.000000 -32.862282
LeftShoulder -21.017303 -21.650333 71.316677
LeftArm 66.623690 -47.136777 -16.413940
LeftForeArm 10.942949 -0.000000 15.803395
LeftHand -17.999917 0.000000 19.832545
LeftHandThumb1 -26.253704 0.000000 33.147579
Head -33.958776 -6.917613 51.922357
333
root -0.815988 15.655563 -2.545266 47.367938 -22.601535 22.099946
RightUpLeg -172.247692 -52.095017 33.479573
RightLeg 100.961502 -0.000000 -0.000000
RightFoot -10.361250 20.845468 20.353789
RightToeBase 18.622139 -0.000000 -0.000000
LeftUpLeg -31.458463 32.262539 19.491758
LeftLeg 11.477004 -0.000000 -0.000000
LeftFoot -26.275517 -1.798470 -20.259731
LeftToeBase 4.685846 -0.000000 -0.000000
Spine -34.579163 16.124345 24.630416
RightShoulder -13.038635 21.219976 -15.433515
RightArm -1.934855 -13.975754 55.996726
RightForeArm 0.642598 -0.000000 10.756698
RightHand 41.003595 -0.000000 -73.312103
RightHandThumb1 -24.326973 -0.000000 -32.862282
LeftShoulder -20.994901 -21.668468 71.363411
LeftArm 66.963018 -46.933911 -16.333545
LeftForeArm 11.072828 0.000000 15.745205
LeftHand -18.010479 0.000000 19.534812
LeftHandThumb1 -26.253704 0.000000 33.147579
Head -33.964231 -7.091108 52.178151
334
root -0.852957 15.596976 -2.532464 47.306165 -22.288421 21.971661
RightUpLeg -171.889898 -52.548475 33.149498
RightLeg 101.273487 -0.000000 -0.000000
RightFoot -10.485186 20.495247 20.708222
RightToeBase 19.251922 -0.000000 -0.000000
LeftUpLeg -31.352154 32.327932 19.873125
LeftLeg 11.460341 -0.000000 -0.000000
LeftFoot -26.270205 -1.975628 -20.289289
LeftToeBase 4.623172 -0.000000 -0.000000
Spine -34.685100 15.898885 24.913587
RightShoulder -13.189874 21.173115 -15.350119
RightArm -2.332262 -13.316541 56.030046
RightForeArm -0.386925 -0.000000 11.953519
RightHand 40.741733 -0.000000 -72.985438
RightHandThumb1 -24.326973 -0.000000 -32.862282
LeftShoulder -20.960196 -21.682198 71.402074
LeftArm 67.337350 -46.774493 -16.443392
LeftForeArm 11.297703 -0.000000 15.857938
LeftHand -18.026915 -0.000000 19.133230
LeftHandThumb1 -26.253704 0.000000 33.147579
Head -33.927987 -7.237725 52.393238
335
root -0.894799 15.532941 -2.519550 47.270679 -21.991243 21.807932
RightUpLeg -171.519982 -52.962117 32.786227
RightLeg 101.612428 -0.000000 -0.000000
RightFoot -10.488998 20.165824 21.189804
RightToeBase 19.711925 -0.000000 -0.000000
LeftUpLeg -31.272410 32.568155 20.208778
LeftLeg 11.438259 -0.000000 -0.000000
LeftFoot -26.179204 -2.283839 -20.355217
LeftToeBase 4.490465 -0.000000 -0.000000
Spine -34.795081 15.681073 25.202009
RightShoulder -13.380566 21.028822 -15.235924
RightArm -2.533536 -12.793958 56.049066
RightForeArm -1.384473 -0.000000 13.012124
RightHand 40.390267 -0.000000 -72.683160
RightHandThumb1 -24.326973 -0.000000 -32.862282
LeftShoulder -20.899200 -21.675145 71.404628
LeftArm 67.685862 -46.641397 -16.419388
LeftForeArm 11.376679 -0.000000 15.859244
LeftHand -17.960983 -0.000000 18.841807
LeftHandThumb1 -26.253704 0.000000 33.147579
Head -33.880961 -7.390284 52.608511
336
root -0.936666 15.468135 -2.504142 47.241421 -21.696787 21.680078
RightUpLeg -171.216110 -53.379487 32.455989
RightLeg 101.964259 -0.000000 -0.000000
RightFoot -10.494216 19.881944 21.698763
RightToeBase 20.049425 -0.000000 -0.000000
LeftUpLeg -31.220020 32.838730 20.476856
LeftLeg 11.373719 -0.000000 -0.000000
LeftFoot -26.057590 -2.627610 -20.360609
LeftToeBase 4.523214 -0.000000 -0.000000
Spine -34.933565 15.432172 25.463954
RightShoulder -13.603414 20.876265 -15.098544
RightArm -2.588004 -12.321050 56.040753
RightForeArm -2.283714 -0.000000 13.867200
RightHand 40.231102 -0.000000 -72.441589
RightHandThumb1 -24.326973 -0.000000 -32.862282
LeftShoulder -20.873701 -21.659393 71.471454
LeftArm 68.066628 -46.511706 -16.611938
LeftForeArm 11.382980 0.000000 16.024463
LeftHand -18.078126 -0.000000 18.748902
LeftHandThumb1 -26.253704 0.000000 33.147579
Head -33.829225 -7.512388 52.805974
337
root -0.980872 15.398528 -2.490067 47.224914 -21.409673 21.547571
RightUpLeg -170.927065 -53.792022 32.116929
RightLeg 102.343437 -0.000000 -0.000000
RightFoot -10.519192 19.660216 22.182123
RightToeBase 20.397066 -0.000000 -0.000000
LeftUpLeg -31.208879 33.200904 20.704977
LeftLeg 11.333836 -0.000000 -0.000000
LeftFoot -25.901281 -2.997215 -20.338194
LeftToeBase 4.370501 -0.000000 -0.000000
Spine -35.075042 15.171955 25.724034
RightShoulder -13.803583 20.761266 -14.999247
RightArm -2.630122 -12.263814 56.093654
RightForeArm -2.740111 0.000000 14.573919
RightHand 40.029719 0.000000 -72.413293
RightHandThumb1 -24.326973 -0.000000 -32.862282
LeftShoulder -20.854563 -21.645738 71.523502
LeftArm 68.449338 -46.369035 -16.753129
LeftForeArm 11.409781 -0.000000 16.143748
LeftHand -18.053017 -0.000000 18.281193
LeftHandThumb1 -26.253704 0.000000 33.147579
Head -33.792118 -7.604338 52.978859
